<svg xmlns="http://www.w3.org/2000/svg" viewBox="0 0 80 60" fill="none">
  <!-- Cluster B: Marigold daisy + lavender accents -->
  
  <!-- Main daisy (marigold) -->
  <g transform="translate(38, 30)">
    <ellipse cx="0" cy="-7" rx="3.5" ry="6" fill="#F4C430" opacity="0.85"/>
    <ellipse cx="0" cy="-7" rx="3.5" ry="6" fill="#F4C430" opacity="0.85" transform="rotate(45)"/>
    <ellipse cx="0" cy="-7" rx="3.5" ry="6" fill="#F4C430" opacity="0.85" transform="rotate(90)"/>
    <ellipse cx="0" cy="-7" rx="3.5" ry="6" fill="#F4C430" opacity="0.85" transform="rotate(135)"/>
    <ellipse cx="0" cy="-7" rx="3.5" ry="6" fill="#F4C430" opacity="0.85" transform="rotate(180)"/>
    <ellipse cx="0" cy="-7" rx="3.5" ry="6" fill="#F4C430" opacity="0.85" transform="rotate(225)"/>
    <ellipse cx="0" cy="-7" rx="3.5" ry="6" fill="#F4C430" opacity="0.85" transform="rotate(270)"/>
    <ellipse cx="0" cy="-7" rx="3.5" ry="6" fill="#F4C430" opacity="0.85" transform="rotate(315)"/>
    <circle cx="0" cy="0" r="3.5" fill="#E5793B"/>
  </g>
  
  <!-- Lavender accents -->
  <g transform="translate(58, 20)">
    <circle cx="-2" cy="0" r="2.5" fill="#9B8CBF" opacity="0.7"/>
    <circle cx="2" cy="0" r="2.5" fill="#9B8CBF" opacity="0.7"/>
    <circle cx="0" cy="-2" r="2.5" fill="#9B8CBF" opacity="0.7"/>
    <circle cx="0" cy="0" r="1.5" fill="#F4C430"/>
  </g>
  
  <g transform="translate(22, 45)">
    <circle cx="-1.5" cy="0" r="2" fill="#9B8CBF" opacity="0.6"/>
    <circle cx="1.5" cy="0" r="2" fill="#9B8CBF" opacity="0.6"/>
    <circle cx="0" cy="0" r="1.2" fill="#F4C430"/>
  </g>
</svg>
